<?xml version="1.0" standalone="no"?><!DOCTYPE svg PUBLIC "-//W3C//DTD SVG 1.1//EN" "http://www.w3.org/Graphics/SVG/1.1/DTD/svg11.dtd"><svg t="1716265156228" class="icon" viewBox="0 0 1024 1024" version="1.1" xmlns="http://www.w3.org/2000/svg" p-id="5488" xmlns:xlink="http://www.w3.org/1999/xlink" width="200" height="200"><path d="M864 64H160c-52.8 0-96 43.2-96 96v704c0 52.8 43.2 96 96 96h704c52.8 0 96-43.2 96-96V160c0-52.8-43.2-96-96-96z m32 800c0 17.6-14.4 32-32 32H160c-17.6 0-32-14.4-32-32V160c0-17.6 14.4-32 32-32h704c17.6 0 32 14.4 32 32v704z" p-id="5489"></path><path d="M288 320h448c17.6 0 32-14.4 32-32s-14.4-32-32-32H288c-17.6 0-32 14.4-32 32s14.4 32 32 32zM288 512h448c17.6 0 32-14.4 32-32s-14.4-32-32-32H288c-17.6 0-32 14.4-32 32s14.4 32 32 32zM288 704h448c17.6 0 32-14.4 32-32s-14.4-32-32-32H288c-17.6 0-32 14.4-32 32s14.4 32 32 32z" p-id="5490"></path></svg> 