<?xml version="1.0" standalone="no"?><!DOCTYPE svg PUBLIC "-//W3C//DTD SVG 1.1//EN" "http://www.w3.org/Graphics/SVG/1.1/DTD/svg11.dtd"><svg t="1716265186286" class="icon" viewBox="0 0 1024 1024" version="1.1" xmlns="http://www.w3.org/2000/svg" p-id="6526" xmlns:xlink="http://www.w3.org/1999/xlink" width="200" height="200"><path d="M512 64c259.2 0 469.333333 200.576 469.333333 448s-210.133333 448-469.333333 448a484.48 484.48 0 0 1-232.725333-58.88l-116.394667 50.645333a42.666667 42.666667 0 0 1-58.88-45.781333l14.506667-120.746667C76.629333 703.402667 42.666667 611.477333 42.666667 512 42.666667 264.576 252.8 64 512 64z m0 64C287.488 128 106.666667 300.586667 106.666667 512c0 89.6 32.213333 171.178667 69.632 237.994667l2.858666 5.12-20.48 170.624 164.693334-71.68 4.266666 2.304C381.568 887.637333 444.16 896 512 896c224.512 0 405.333333-172.586667 405.333333-384S736.512 128 512 128z m-157.866667 298.666667a42.666667 42.666667 0 0 1 0 85.333333 42.666667 42.666667 0 0 1 0-85.333333z m157.866667 0a42.666667 42.666667 0 0 1 0 85.333333 42.666667 42.666667 0 0 1 0-85.333333z m157.866667 0a42.666667 42.666667 0 0 1 0 85.333333 42.666667 42.666667 0 0 1 0-85.333333z" p-id="6527"></path></svg> 