<?xml version="1.0" standalone="no"?><!DOCTYPE svg PUBLIC "-//W3C//DTD SVG 1.1//EN" "http://www.w3.org/Graphics/SVG/1.1/DTD/svg11.dtd"><svg t="1716265219125" class="icon" viewBox="0 0 1024 1024" version="1.1" xmlns="http://www.w3.org/2000/svg" p-id="7564" xmlns:xlink="http://www.w3.org/1999/xlink" width="200" height="200"><path d="M512 328c-101.6 0-184 82.4-184 184s82.4 184 184 184 184-82.4 184-184-82.4-184-184-184z m0 304c-66.4 0-120-53.6-120-120s53.6-120 120-120 120 53.6 120 120-53.6 120-120 120z" p-id="7565"></path><path d="M887.2 454.4l-25.6-6.4c-12-3.2-20.8-12.8-24-24l-3.2-12.8c-3.2-12.8 0-25.6 8-35.2l17.6-19.2c16-17.6 14.4-44.8-3.2-60.8l-52.8-44.8c-17.6-14.4-44.8-12.8-60.8 4.8l-17.6 19.2c-9.6 9.6-22.4 14.4-35.2 11.2l-12.8-3.2c-12-3.2-20.8-12.8-24-24l-6.4-25.6c-4.8-22.4-25.6-38.4-48-38.4h-68.8c-22.4 0-43.2 16-48 38.4l-6.4 25.6c-3.2 12-12.8 20.8-24 24l-12.8 3.2c-12.8 3.2-25.6 0-35.2-11.2l-17.6-19.2c-16-17.6-43.2-19.2-60.8-4.8L272 196.8c-17.6 16-19.2 43.2-3.2 60.8l17.6 19.2c8 9.6 11.2 22.4 8 35.2l-3.2 12.8c-3.2 12-12.8 20.8-24 24l-25.6 6.4c-22.4 4.8-38.4 25.6-38.4 48v68.8c0 22.4 16 43.2 38.4 48l25.6 6.4c12 3.2 20.8 12.8 24 24l3.2 12.8c3.2 12.8 0 25.6-8 35.2l-17.6 19.2c-16 17.6-14.4 44.8 3.2 60.8l52.8 44.8c17.6 14.4 44.8 12.8 60.8-4.8l17.6-19.2c9.6-9.6 22.4-14.4 35.2-11.2l12.8 3.2c12 3.2 20.8 12.8 24 24l6.4 25.6c4.8 22.4 25.6 38.4 48 38.4h68.8c22.4 0 43.2-16 48-38.4l6.4-25.6c3.2-12 12.8-20.8 24-24l12.8-3.2c12.8-3.2 25.6 0 35.2 11.2l17.6 19.2c16 17.6 43.2 19.2 60.8 4.8l52.8-44.8c17.6-16 19.2-43.2 3.2-60.8l-17.6-19.2c-8-9.6-11.2-22.4-8-35.2l3.2-12.8c3.2-12 12.8-20.8 24-24l25.6-6.4c22.4-4.8 38.4-25.6 38.4-48v-68.8c0-22.4-16-43.2-38.4-48z m-25.6 116.8c0 3.2-3.2 6.4-6.4 8l-25.6 6.4c-38.4 8-68.8 38.4-76.8 76.8l-3.2 12.8c-8 36.8 4.8 76.8 33.6 102.4l17.6 19.2c3.2 3.2 3.2 6.4 0 9.6l-52.8 44.8c-3.2 3.2-6.4 1.6-9.6 0l-17.6-19.2c-25.6-28.8-65.6-41.6-102.4-33.6l-12.8 3.2c-38.4 8-68.8 38.4-76.8 76.8l-6.4 25.6c0 3.2-4.8 6.4-8 6.4h-68.8c-3.2 0-6.4-3.2-8-6.4l-6.4-25.6c-8-38.4-38.4-68.8-76.8-76.8l-12.8-3.2c-36.8-8-76.8 4.8-102.4 33.6l-17.6 19.2c-3.2 3.2-6.4 3.2-9.6 0l-52.8-44.8c-3.2-3.2-1.6-6.4 0-9.6l17.6-19.2c28.8-25.6 41.6-65.6 33.6-102.4l-3.2-12.8c-8-38.4-38.4-68.8-76.8-76.8l-25.6-6.4c-3.2 0-6.4-4.8-6.4-8v-68.8c0-3.2 3.2-6.4 6.4-8l25.6-6.4c38.4-8 68.8-38.4 76.8-76.8l3.2-12.8c8-36.8-4.8-76.8-33.6-102.4l-17.6-19.2c-3.2-3.2-3.2-6.4 0-9.6l52.8-44.8c3.2-3.2 6.4-1.6 9.6 0l17.6 19.2c25.6 28.8 65.6 41.6 102.4 33.6l12.8-3.2c38.4-8 68.8-38.4 76.8-76.8l6.4-25.6c0-3.2 4.8-6.4 8-6.4h68.8c3.2 0 6.4 3.2 8 6.4l6.4 25.6c8 38.4 38.4 68.8 76.8 76.8l12.8 3.2c36.8 8 76.8-4.8 102.4-33.6l17.6-19.2c3.2-3.2 6.4-3.2 9.6 0l52.8 44.8c3.2 3.2 1.6 6.4 0 9.6l-17.6 19.2c-28.8 25.6-41.6 65.6-33.6 102.4l3.2 12.8c8 38.4 38.4 68.8 76.8 76.8l25.6 6.4c3.2 0 6.4 4.8 6.4 8v68.8z" p-id="7566"></path></svg> 