<?xml version="1.0" standalone="no"?><!DOCTYPE svg PUBLIC "-//W3C//DTD SVG 1.1//EN" "http://www.w3.org/Graphics/SVG/1.1/DTD/svg11.dtd"><svg t="1716265114602" class="icon" viewBox="0 0 1024 1024" version="1.1" xmlns="http://www.w3.org/2000/svg" p-id="4450" xmlns:xlink="http://www.w3.org/1999/xlink" width="200" height="200"><path d="M512 512c123.776 0 224-100.224 224-224S635.776 64 512 64 288 164.224 288 288s100.224 224 224 224z m0-384c88.224 0 160 71.776 160 160s-71.776 160-160 160-160-71.776-160-160 71.776-160 160-160z" p-id="4451"></path><path d="M512 576c-211.744 0-384 172.256-384 384 0 17.664 14.336 32 32 32s32-14.336 32-32c0-176.448 143.552-320 320-320s320 143.552 320 320c0 17.664 14.336 32 32 32s32-14.336 32-32c0-211.744-172.256-384-384-384z" p-id="4452"></path></svg> 